<svg width="16" height="17" viewBox="0 0 16 17" fill="none" xmlns="http://www.w3.org/2000/svg">
  <path d="M10.7891 8.8075L7.22354 12.1381C7.15705 12.2002 7.07812 12.2495 6.99125 12.2831C6.90438 12.3167 6.81127 12.334 6.71724 12.334C6.52734 12.334 6.34522 12.2635 6.21094 12.1381C6.14445 12.076 6.0917 12.0022 6.05572 11.9211C6.01974 11.8399 6.00122 11.753 6.00122 11.6651C6.00122 11.4878 6.07665 11.3176 6.21094 11.1922L9.27728 8.33455L6.21094 5.47691C6.1441 5.41498 6.09105 5.34131 6.05484 5.26014C6.01864 5.17897 6 5.0919 6 5.00396C6 4.91603 6.01864 4.82896 6.05484 4.74779C6.09105 4.66662 6.1441 4.59295 6.21094 4.53102C6.27723 4.46859 6.3561 4.41903 6.443 4.38521C6.52989 4.3514 6.6231 4.33398 6.71724 4.33398C6.81138 4.33398 6.90458 4.3514 6.99148 4.38521C7.07838 4.41903 7.15725 4.46859 7.22354 4.53102L10.7891 7.86161C10.8559 7.92353 10.909 7.99721 10.9452 8.07838C10.9814 8.15955 11 8.24662 11 8.33455C11 8.42249 10.9814 8.50955 10.9452 8.59073C10.909 8.6719 10.8559 8.74557 10.7891 8.8075Z" fill="#06739A" />
</svg>